<?xml version="1.0" encoding="UTF-8" standalone="no"?>
<!DOCTYPE svg PUBLIC "-//W3C//DTD SVG 1.0//EN" "http://www.w3.org/TR/2001/PR-SVG-20010719/DTD/svg10.dtd">
<svg width="59cm" height="28cm" viewBox="-125 32 1162 542" xmlns="http://www.w3.org/2000/svg" xmlns:xlink="http://www.w3.org/1999/xlink">
  <g>
    <rect style="fill: #bfbfbf" x="383" y="34" width="274" height="39"/>
    <rect style="fill: none; fill-opacity:0; stroke-width: 2; stroke: #000000" x="383" y="34" width="274" height="39"/>
    <text font-size="12.8" style="fill: #000000;text-anchor:middle;font-family:sans-serif;font-style:normal;font-weight:normal" x="520" y="57.4">
      <tspan x="520" y="57.4">Work Breakdown Structure</tspan>
    </text>
  </g>
  <g>
    <rect style="fill: #bfbfbf" x="-63" y="128" width="137" height="38"/>
    <rect style="fill: none; fill-opacity:0; stroke-width: 2; stroke: #000000" x="-63" y="128" width="137" height="38"/>
    <text font-size="12.8" style="fill: #000000;text-anchor:middle;font-family:sans-serif;font-style:normal;font-weight:normal" x="5.5" y="150.9">
      <tspan x="5.5" y="150.9">Content Provider</tspan>
    </text>
  </g>
  <g>
    <rect style="fill: #bfbfbf" x="222.124" y="171" width="201.75" height="40"/>
    <rect style="fill: none; fill-opacity:0; stroke-width: 2; stroke: #000000" x="222.124" y="171" width="201.75" height="40"/>
    <text font-size="12.8" style="fill: #000000;text-anchor:middle;font-family:sans-serif;font-style:normal;font-weight:normal" x="322.999" y="194.9">
      <tspan x="322.999" y="194.9">Proof-of-concept Application</tspan>
    </text>
  </g>
  <g>
    <line style="fill: none; fill-opacity:0; stroke-width: 2; stroke: #000000" x1="407.171" y1="74.0045" x2="79.4018" y2="133.57"/>
    <polyline style="fill: none; fill-opacity:0; stroke-width: 2; stroke: #000000" points="86.1467,127.262 77.2018,133.97 87.9347,137.101 "/>
  </g>
  <g>
    <line style="fill: none; fill-opacity:0; stroke-width: 2; stroke: #000000" x1="490.637" y1="73.9941" x2="356.726" y2="167.46"/>
    <polyline style="fill: none; fill-opacity:0; stroke-width: 2; stroke: #000000" points="360.231,158.916 354.893,168.739 365.954,167.116 "/>
  </g>
  <g>
    <rect style="fill: #bfbfbf" x="619.624" y="133" width="80.75" height="38"/>
    <rect style="fill: none; fill-opacity:0; stroke-width: 2; stroke: #000000" x="619.624" y="133" width="80.75" height="38"/>
    <text font-size="12.8" style="fill: #000000;text-anchor:middle;font-family:sans-serif;font-style:normal;font-weight:normal" x="659.999" y="155.9">
      <tspan x="659.999" y="155.9">Research</tspan>
    </text>
  </g>
  <g>
    <rect style="fill: #bfbfbf" x="905.674" y="132" width="120.65" height="38"/>
    <rect style="fill: none; fill-opacity:0; stroke-width: 2; stroke: #000000" x="905.674" y="132" width="120.65" height="38"/>
    <text font-size="12.8" style="fill: #000000;text-anchor:middle;font-family:sans-serif;font-style:normal;font-weight:normal" x="965.999" y="154.9">
      <tspan x="965.999" y="154.9">Documentation</tspan>
    </text>
  </g>
  <g>
    <line style="fill: none; fill-opacity:0; stroke-width: 2; stroke: #000000" x1="549.138" y1="74.0008" x2="628.998" y2="130.188"/>
    <polyline style="fill: none; fill-opacity:0; stroke-width: 2; stroke: #000000" points="619.771,129.81 630.827,131.475 625.525,121.632 "/>
  </g>
  <g>
    <line style="fill: none; fill-opacity:0; stroke-width: 2; stroke: #000000" x1="613.751" y1="73.995" x2="900.313" y2="136.64"/>
    <polyline style="fill: none; fill-opacity:0; stroke-width: 2; stroke: #000000" points="891.661,139.867 902.498,137.118 893.796,130.098 "/>
  </g>
  <g>
    <rect style="fill: #bfbfbf" x="31.025" y="291" width="195.95" height="38"/>
    <rect style="fill: none; fill-opacity:0; stroke-width: 2; stroke: #000000" x="31.025" y="291" width="195.95" height="38"/>
    <text font-size="12.8" style="fill: #000000;text-anchor:middle;font-family:sans-serif;font-style:normal;font-weight:normal" x="129" y="313.9">
      <tspan x="129" y="313.9">Basic functionality</tspan>
    </text>
  </g>
  <g>
    <line style="fill: none; fill-opacity:0; stroke-width: 2; stroke: #000000" x1="288.779" y1="211.991" x2="165.422" y2="287.659"/>
    <polyline style="fill: none; fill-opacity:0; stroke-width: 2; stroke: #000000" points="169.425,279.337 163.515,288.828 174.654,287.861 "/>
  </g>
  <g>
    <rect style="fill: #bfbfbf" x="-123.375" y="414" width="142.75" height="38"/>
    <rect style="fill: none; fill-opacity:0; stroke-width: 2; stroke: #000000" x="-123.375" y="414" width="142.75" height="38"/>
    <text font-size="12.8" style="fill: #000000;text-anchor:middle;font-family:sans-serif;font-style:normal;font-weight:normal" x="-52" y="436.9">
      <tspan x="-52" y="436.9">Write name screen</tspan>
    </text>
  </g>
  <g>
    <rect style="fill: #bfbfbf" x="32.425" y="414" width="99.15" height="38"/>
    <rect style="fill: none; fill-opacity:0; stroke-width: 2; stroke: #000000" x="32.425" y="414" width="99.15" height="38"/>
    <text font-size="12.8" style="fill: #000000;text-anchor:middle;font-family:sans-serif;font-style:normal;font-weight:normal" x="82" y="436.9">
      <tspan x="82" y="436.9">Main screen</tspan>
    </text>
  </g>
  <g>
    <rect style="fill: #bfbfbf" x="147.45" y="415" width="85.1" height="38"/>
    <rect style="fill: none; fill-opacity:0; stroke-width: 2; stroke: #000000" x="147.45" y="415" width="85.1" height="38"/>
    <text font-size="12.8" style="fill: #000000;text-anchor:middle;font-family:sans-serif;font-style:normal;font-weight:normal" x="190" y="437.9">
      <tspan x="190" y="437.9">Event List</tspan>
    </text>
  </g>
  <g>
    <rect style="fill: #bfbfbf" x="248.774" y="415" width="100.45" height="38"/>
    <rect style="fill: none; fill-opacity:0; stroke-width: 2; stroke: #000000" x="248.774" y="415" width="100.45" height="38"/>
    <text font-size="12.8" style="fill: #000000;text-anchor:middle;font-family:sans-serif;font-style:normal;font-weight:normal" x="298.999" y="437.9">
      <tspan x="298.999" y="437.9">Event Detail</tspan>
    </text>
  </g>
  <g>
    <line style="fill: none; fill-opacity:0; stroke-width: 2; stroke: #000000" x1="99.5588" y1="330.007" x2="-18.8599" y2="410.479"/>
    <polyline style="fill: none; fill-opacity:0; stroke-width: 2; stroke: #000000" points="-15.2487,401.98 -20.7093,411.736 -9.62807,410.251 "/>
  </g>
  <g>
    <line style="fill: none; fill-opacity:0; stroke-width: 2; stroke: #000000" x1="121.355" y1="330.007" x2="91.2413" y2="408.815"/>
    <polyline style="fill: none; fill-opacity:0; stroke-width: 2; stroke: #000000" points="89.3419,399.778 90.4431,410.904 98.6832,403.348 "/>
  </g>
  <g>
    <line style="fill: none; fill-opacity:0; stroke-width: 2; stroke: #000000" x1="138.837" y1="329.996" x2="178.189" y2="409.992"/>
    <polyline style="fill: none; fill-opacity:0; stroke-width: 2; stroke: #000000" points="170.276,405.232 179.176,411.998 179.249,400.818 "/>
  </g>
  <g>
    <line style="fill: none; fill-opacity:0; stroke-width: 2; stroke: #000000" x1="156.413" y1="329.996" x2="267.973" y2="411.369"/>
    <polyline style="fill: none; fill-opacity:0; stroke-width: 2; stroke: #000000" points="258.754,410.833 269.779,412.687 264.647,402.754 "/>
  </g>
  <g>
    <rect style="fill: #bfbfbf" x="899.874" y="216" width="136.25" height="38"/>
    <rect style="fill: none; fill-opacity:0; stroke-width: 2; stroke: #000000" x="899.874" y="216" width="136.25" height="38"/>
    <text font-size="12.8" style="fill: #000000;text-anchor:middle;font-family:sans-serif;font-style:normal;font-weight:normal" x="967.999" y="238.9">
      <tspan x="967.999" y="238.9">Write basic report</tspan>
    </text>
  </g>
  <g>
    <line style="fill: none; fill-opacity:0; stroke-width: 2; stroke: #000000" x1="966.472" y1="170.852" x2="967.42" y2="210.678"/>
    <polyline style="fill: none; fill-opacity:0; stroke-width: 2; stroke: #000000" points="962.237,203.035 967.473,212.913 972.234,202.797 "/>
  </g>
  <g>
    <rect style="fill: #bfbfbf" x="535.524" y="233" width="152.95" height="38"/>
    <rect style="fill: none; fill-opacity:0; stroke-width: 2; stroke: #000000" x="535.524" y="233" width="152.95" height="38"/>
    <text font-size="12.8" style="fill: #000000;text-anchor:middle;font-family:sans-serif;font-style:normal;font-weight:normal" x="611.999" y="255.9">
      <tspan x="611.999" y="255.9">Related Applications</tspan>
    </text>
  </g>
  <g>
    <line style="fill: none; fill-opacity:0; stroke-width: 2; stroke: #000000" x1="650.413" y1="171.971" x2="623.52" y2="227.998"/>
    <polyline style="fill: none; fill-opacity:0; stroke-width: 2; stroke: #000000" points="622.372,218.835 622.553,230.013 631.387,223.162 "/>
  </g>
  <g>
    <rect style="fill: #bfbfbf" x="701" y="232" width="152" height="38"/>
    <rect style="fill: none; fill-opacity:0; stroke-width: 2; stroke: #000000" x="701" y="232" width="152" height="38"/>
    <text font-size="12.8" style="fill: #000000;text-anchor:middle;font-family:sans-serif;font-style:normal;font-weight:normal" x="777" y="254.9">
      <tspan x="777" y="254.9">Physiology of Falling</tspan>
    </text>
  </g>
  <g>
    <line style="fill: none; fill-opacity:0; stroke-width: 2; stroke: #000000" x1="683.593" y1="171.964" x2="749.992" y2="228.147"/>
    <polyline style="fill: none; fill-opacity:0; stroke-width: 2; stroke: #000000" points="740.835,226.949 751.699,229.591 747.294,219.315 "/>
  </g>
  <g>
    <rect style="fill: #ffffff" x="389.1" y="317" width="101.8" height="38"/>
    <rect style="fill: none; fill-opacity:0; stroke-width: 2; stroke: #000000" x="389.1" y="317" width="101.8" height="38"/>
    <text font-size="12.8" style="fill: #000000;text-anchor:middle;font-family:sans-serif;font-style:normal;font-weight:normal" x="440" y="339.9">
      <tspan x="440" y="339.9">Improve GUI</tspan>
    </text>
  </g>
  <g>
    <line style="fill: none; fill-opacity:0; stroke-width: 2; stroke: #000000" x1="339.945" y1="212.001" x2="421.067" y2="312.536"/>
    <polyline style="fill: none; fill-opacity:0; stroke-width: 2; stroke: #000000" points="412.3,309.634 422.471,314.276 420.083,303.354 "/>
  </g>
  <g>
    <rect style="fill: #ffffff" x="486.15" y="483" width="317.7" height="38"/>
    <rect style="fill: none; fill-opacity:0; stroke-width: 2; stroke: #000000" x="486.15" y="483" width="317.7" height="38"/>
    <text font-size="12.8" style="fill: #000000;text-anchor:middle;font-family:sans-serif;font-style:normal;font-weight:normal" x="645" y="505.9">
      <tspan x="645" y="505.9">Make menus consistent across the application</tspan>
    </text>
  </g>
  <g>
    <rect style="fill: #ffffff" x="312.654" y="535" width="266.5" height="38"/>
    <rect style="fill: none; fill-opacity:0; stroke-width: 2; stroke: #000000" x="312.654" y="535" width="266.5" height="38"/>
    <text font-size="12.8" style="fill: #000000;text-anchor:middle;font-family:sans-serif;font-style:normal;font-weight:normal" x="445.904" y="557.9">
      <tspan x="445.904" y="557.9">Improve Event List and Detail Screens</tspan>
    </text>
  </g>
  <g>
    <rect style="fill: #ffffff" x="265.254" y="488" width="119.3" height="38"/>
    <rect style="fill: none; fill-opacity:0; stroke-width: 2; stroke: #000000" x="265.254" y="488" width="119.3" height="38"/>
    <text font-size="12.8" style="fill: #000000;text-anchor:middle;font-family:sans-serif;font-style:normal;font-weight:normal" x="324.904" y="510.9">
      <tspan x="324.904" y="510.9">Build Database</tspan>
    </text>
  </g>
  <g>
    <rect style="fill: #ffffff" x="666.028" y="428" width="147.75" height="38"/>
    <rect style="fill: none; fill-opacity:0; stroke-width: 2; stroke: #000000" x="666.028" y="428" width="147.75" height="38"/>
    <text font-size="12.8" style="fill: #000000;text-anchor:middle;font-family:sans-serif;font-style:normal;font-weight:normal" x="739.903" y="450.9">
      <tspan x="739.903" y="450.9">Improve the visuals</tspan>
    </text>
  </g>
  <g>
    <line style="fill: none; fill-opacity:0; stroke-width: 2; stroke: #000000" x1="426.533" y1="356.008" x2="340.868" y2="483.282"/>
    <polyline style="fill: none; fill-opacity:0; stroke-width: 2; stroke: #000000" points="341.055,474.049 339.619,485.137 349.351,479.633 "/>
  </g>
  <g>
    <line style="fill: none; fill-opacity:0; stroke-width: 2; stroke: #000000" x1="440.536" y1="355.799" x2="445.247" y2="529.731"/>
    <polyline style="fill: none; fill-opacity:0; stroke-width: 2; stroke: #000000" points="440.038,522.105 445.307,531.966 450.035,521.834 "/>
  </g>
  <g>
    <line style="fill: none; fill-opacity:0; stroke-width: 2; stroke: #000000" x1="464.687" y1="355.99" x2="616.838" y2="479.196"/>
    <polyline style="fill: none; fill-opacity:0; stroke-width: 2; stroke: #000000" points="607.658,478.195 618.576,480.603 613.951,470.424 "/>
  </g>
  <g>
    <line style="fill: none; fill-opacity:0; stroke-width: 2; stroke: #000000" x1="491.875" y1="355.2" x2="681.655" y2="425.441"/>
    <polyline style="fill: none; fill-opacity:0; stroke-width: 2; stroke: #000000" points="672.639,427.436 683.752,426.218 676.11,418.057 "/>
  </g>
  <g>
    <rect style="fill: #ffffff" x="-49.575" y="199" width="112.4" height="38"/>
    <rect style="fill: none; fill-opacity:0; stroke-width: 2; stroke: #000000" x="-49.575" y="199" width="112.4" height="38"/>
    <text font-size="12.8" style="fill: #000000;text-anchor:middle;font-family:sans-serif;font-style:normal;font-weight:normal" x="6.625" y="221.9">
      <tspan x="6.625" y="221.9">Create Project</tspan>
    </text>
  </g>
  <g>
    <line style="fill: none; fill-opacity:0; stroke-width: 2; stroke: #000000" x1="5.81668" y1="166.986" x2="6.23747" y2="193.542"/>
    <polyline style="fill: none; fill-opacity:0; stroke-width: 2; stroke: #000000" points="1.11509,185.859 6.27289,195.778 11.1138,185.7 "/>
  </g>
</svg>
