<?xml version="1.0" encoding="UTF-8" standalone="no"?>
<!DOCTYPE svg PUBLIC "-//W3C//DTD SVG 1.0//EN" "http://www.w3.org/TR/2001/PR-SVG-20010719/DTD/svg10.dtd">
<svg width="110cm" height="42cm" viewBox="-587 32 2190 823" xmlns="http://www.w3.org/2000/svg" xmlns:xlink="http://www.w3.org/1999/xlink">
  <g>
    <rect style="fill: #bfbfbf" x="383" y="34" width="274" height="39"/>
    <rect style="fill: none; fill-opacity:0; stroke-width: 2; stroke: #000000" x="383" y="34" width="274" height="39"/>
    <text font-size="12.8" style="fill: #000000;text-anchor:middle;font-family:sans-serif;font-style:normal;font-weight:normal" x="520" y="57.4">
      <tspan x="520" y="57.4">Work Breakdown Structure</tspan>
    </text>
  </g>
  <g>
    <rect style="fill: #bfbfbf" x="-145.817" y="131.858" width="173.65" height="38"/>
    <rect style="fill: none; fill-opacity:0; stroke-width: 2; stroke: #000000" x="-145.817" y="131.858" width="173.65" height="38"/>
    <text font-size="12.8" style="fill: #000000;text-anchor:middle;font-family:sans-serif;font-style:normal;font-weight:normal" x="-58.992" y="154.758">
      <tspan x="-58.992" y="154.758">Content Provider basics</tspan>
    </text>
  </g>
  <g>
    <rect style="fill: #bfbfbf" x="222.124" y="171" width="201.75" height="40"/>
    <rect style="fill: none; fill-opacity:0; stroke-width: 2; stroke: #000000" x="222.124" y="171" width="201.75" height="40"/>
    <text font-size="12.8" style="fill: #000000;text-anchor:middle;font-family:sans-serif;font-style:normal;font-weight:normal" x="322.999" y="194.9">
      <tspan x="322.999" y="194.9">Proof-of-concept Application</tspan>
    </text>
  </g>
  <g>
    <line style="fill: none; fill-opacity:0; stroke-width: 2; stroke: #000000" x1="490.637" y1="73.9941" x2="356.726" y2="167.46"/>
    <polyline style="fill: none; fill-opacity:0; stroke-width: 2; stroke: #000000" points="360.231,158.916 354.893,168.739 365.954,167.116 "/>
  </g>
  <g>
    <rect style="fill: #bfbfbf" x="619.624" y="133" width="80.75" height="38"/>
    <rect style="fill: none; fill-opacity:0; stroke-width: 2; stroke: #000000" x="619.624" y="133" width="80.75" height="38"/>
    <text font-size="12.8" style="fill: #000000;text-anchor:middle;font-family:sans-serif;font-style:normal;font-weight:normal" x="659.999" y="155.9">
      <tspan x="659.999" y="155.9">Research</tspan>
    </text>
  </g>
  <g>
    <rect style="fill: #bfbfbf" x="1057.67" y="134" width="120.65" height="38"/>
    <rect style="fill: none; fill-opacity:0; stroke-width: 2; stroke: #000000" x="1057.67" y="134" width="120.65" height="38"/>
    <text font-size="12.8" style="fill: #000000;text-anchor:middle;font-family:sans-serif;font-style:normal;font-weight:normal" x="1118" y="156.9">
      <tspan x="1118" y="156.9">Documentation</tspan>
    </text>
  </g>
  <g>
    <line style="fill: none; fill-opacity:0; stroke-width: 2; stroke: #000000" x1="549.138" y1="74.0008" x2="628.998" y2="130.188"/>
    <polyline style="fill: none; fill-opacity:0; stroke-width: 2; stroke: #000000" points="619.771,129.81 630.827,131.475 625.525,121.632 "/>
  </g>
  <g>
    <line style="fill: none; fill-opacity:0; stroke-width: 2; stroke: #000000" x1="642.929" y1="73.9539" x2="1052.26" y2="142.062"/>
    <polyline style="fill: none; fill-opacity:0; stroke-width: 2; stroke: #000000" points="1043.78,145.72 1054.47,142.429 1045.42,135.855 "/>
  </g>
  <g>
    <rect style="fill: #bfbfbf" x="-229.769" y="582.917" width="195.95" height="38"/>
    <rect style="fill: none; fill-opacity:0; stroke-width: 2; stroke: #000000" x="-229.769" y="582.917" width="195.95" height="38"/>
    <text font-size="12.8" style="fill: #000000;text-anchor:middle;font-family:sans-serif;font-style:normal;font-weight:normal" x="-131.794" y="605.817">
      <tspan x="-131.794" y="605.817">Basic functionality</tspan>
    </text>
  </g>
  <g>
    <line style="fill: none; fill-opacity:0; stroke-width: 2; stroke: #000000" x1="299.765" y1="211.992" x2="-106.352" y2="578.93"/>
    <polyline style="fill: none; fill-opacity:0; stroke-width: 2; stroke: #000000" points="-103.944,570.015 -108.011,580.429 -97.2394,577.434 "/>
  </g>
  <g>
    <rect style="fill: #bfbfbf" x="-396.169" y="685.917" width="142.75" height="38"/>
    <rect style="fill: none; fill-opacity:0; stroke-width: 2; stroke: #000000" x="-396.169" y="685.917" width="142.75" height="38"/>
    <text font-size="12.8" style="fill: #000000;text-anchor:middle;font-family:sans-serif;font-style:normal;font-weight:normal" x="-324.794" y="708.817">
      <tspan x="-324.794" y="708.817">Write name screen</tspan>
    </text>
  </g>
  <g>
    <rect style="fill: #bfbfbf" x="-240.369" y="685.917" width="99.15" height="38"/>
    <rect style="fill: none; fill-opacity:0; stroke-width: 2; stroke: #000000" x="-240.369" y="685.917" width="99.15" height="38"/>
    <text font-size="12.8" style="fill: #000000;text-anchor:middle;font-family:sans-serif;font-style:normal;font-weight:normal" x="-190.794" y="708.817">
      <tspan x="-190.794" y="708.817">Main screen</tspan>
    </text>
  </g>
  <g>
    <rect style="fill: #bfbfbf" x="-125.344" y="686.917" width="85.1" height="38"/>
    <rect style="fill: none; fill-opacity:0; stroke-width: 2; stroke: #000000" x="-125.344" y="686.917" width="85.1" height="38"/>
    <text font-size="12.8" style="fill: #000000;text-anchor:middle;font-family:sans-serif;font-style:normal;font-weight:normal" x="-82.7939" y="709.817">
      <tspan x="-82.7939" y="709.817">Event List</tspan>
    </text>
  </g>
  <g>
    <rect style="fill: #bfbfbf" x="-24.0199" y="686.917" width="100.45" height="38"/>
    <rect style="fill: none; fill-opacity:0; stroke-width: 2; stroke: #000000" x="-24.0199" y="686.917" width="100.45" height="38"/>
    <text font-size="12.8" style="fill: #000000;text-anchor:middle;font-family:sans-serif;font-style:normal;font-weight:normal" x="26.2051" y="709.817">
      <tspan x="26.2051" y="709.817">Event Detail</tspan>
    </text>
  </g>
  <g>
    <line style="fill: none; fill-opacity:0; stroke-width: 2; stroke: #000000" x1="-169.207" y1="621.883" x2="-283.436" y2="682.845"/>
    <polyline style="fill: none; fill-opacity:0; stroke-width: 2; stroke: #000000" points="-278.94,674.778 -285.409,683.898 -274.232,683.601 "/>
  </g>
  <g>
    <line style="fill: none; fill-opacity:0; stroke-width: 2; stroke: #000000" x1="-143.231" y1="621.883" x2="-177.134" y2="681.07"/>
    <polyline style="fill: none; fill-opacity:0; stroke-width: 2; stroke: #000000" points="-177.614,671.848 -178.245,683.01 -168.936,676.818 "/>
  </g>
  <g>
    <line style="fill: none; fill-opacity:0; stroke-width: 2; stroke: #000000" x1="-122.391" y1="621.874" x2="-94.1029" y2="681.914"/>
    <polyline style="fill: none; fill-opacity:0; stroke-width: 2; stroke: #000000" points="-101.935,677.022 -93.1498,683.937 -92.8889,672.76 "/>
  </g>
  <g>
    <line style="fill: none; fill-opacity:0; stroke-width: 2; stroke: #000000" x1="-101.475" y1="621.874" x2="-7.8496" y2="683.501"/>
    <polyline style="fill: none; fill-opacity:0; stroke-width: 2; stroke: #000000" points="-17.0838,683.409 -5.98184,684.73 -11.5857,675.056 "/>
  </g>
  <g>
    <rect style="fill: #bfbfbf" x="806.536" y="298.024" width="136.25" height="38"/>
    <rect style="fill: none; fill-opacity:0; stroke-width: 2; stroke: #000000" x="806.536" y="298.024" width="136.25" height="38"/>
    <text font-size="12.8" style="fill: #000000;text-anchor:middle;font-family:sans-serif;font-style:normal;font-weight:normal" x="874.661" y="320.924">
      <tspan x="874.661" y="320.924">Write basic report</tspan>
    </text>
  </g>
  <g>
    <line style="fill: none; fill-opacity:0; stroke-width: 2; stroke: #000000" x1="1088.34" y1="172.992" x2="908.029" y2="294.532"/>
    <polyline style="fill: none; fill-opacity:0; stroke-width: 2; stroke: #000000" points="911.672,286.046 906.175,295.782 917.262,294.338 "/>
  </g>
  <g>
    <rect style="fill: #bfbfbf" x="535.524" y="233" width="152.95" height="38"/>
    <rect style="fill: none; fill-opacity:0; stroke-width: 2; stroke: #000000" x="535.524" y="233" width="152.95" height="38"/>
    <text font-size="12.8" style="fill: #000000;text-anchor:middle;font-family:sans-serif;font-style:normal;font-weight:normal" x="611.999" y="255.9">
      <tspan x="611.999" y="255.9">Related Applications</tspan>
    </text>
  </g>
  <g>
    <line style="fill: none; fill-opacity:0; stroke-width: 2; stroke: #000000" x1="650.413" y1="171.971" x2="623.52" y2="227.998"/>
    <polyline style="fill: none; fill-opacity:0; stroke-width: 2; stroke: #000000" points="622.372,218.835 622.553,230.013 631.387,223.162 "/>
  </g>
  <g>
    <rect style="fill: #bfbfbf" x="701" y="232" width="152" height="38"/>
    <rect style="fill: none; fill-opacity:0; stroke-width: 2; stroke: #000000" x="701" y="232" width="152" height="38"/>
    <text font-size="12.8" style="fill: #000000;text-anchor:middle;font-family:sans-serif;font-style:normal;font-weight:normal" x="777" y="254.9">
      <tspan x="777" y="254.9">Physiology of Falling</tspan>
    </text>
  </g>
  <g>
    <line style="fill: none; fill-opacity:0; stroke-width: 2; stroke: #000000" x1="683.593" y1="171.964" x2="749.992" y2="228.147"/>
    <polyline style="fill: none; fill-opacity:0; stroke-width: 2; stroke: #000000" points="740.835,226.949 751.699,229.591 747.294,219.315 "/>
  </g>
  <g>
    <rect style="fill: #bfbfbf" x="804.879" y="591.357" width="101.8" height="38"/>
    <rect style="fill: none; fill-opacity:0; stroke-width: 2; stroke: #000000" x="804.879" y="591.357" width="101.8" height="38"/>
    <text font-size="12.8" style="fill: #000000;text-anchor:middle;font-family:sans-serif;font-style:normal;font-weight:normal" x="855.779" y="614.257">
      <tspan x="855.779" y="614.257">Improve GUI</tspan>
    </text>
  </g>
  <g>
    <line style="fill: none; fill-opacity:0; stroke-width: 2; stroke: #000000" x1="349.68" y1="212.001" x2="826.868" y2="587.601"/>
    <polyline style="fill: none; fill-opacity:0; stroke-width: 2; stroke: #000000" points="817.674,586.728 828.625,588.984 823.859,578.87 "/>
  </g>
  <g>
    <rect style="fill: #bfbfbf" x="931.627" y="774.327" width="317.7" height="38"/>
    <rect style="fill: none; fill-opacity:0; stroke-width: 2; stroke: #000000" x="931.627" y="774.327" width="317.7" height="38"/>
    <text font-size="12.8" style="fill: #000000;text-anchor:middle;font-family:sans-serif;font-style:normal;font-weight:normal" x="1090.48" y="797.227">
      <tspan x="1090.48" y="797.227">Make menus consistent across the application</tspan>
    </text>
  </g>
  <g>
    <rect style="fill: #bfbfbf" x="773.689" y="816.429" width="266.5" height="38"/>
    <rect style="fill: none; fill-opacity:0; stroke-width: 2; stroke: #000000" x="773.689" y="816.429" width="266.5" height="38"/>
    <text font-size="12.8" style="fill: #000000;text-anchor:middle;font-family:sans-serif;font-style:normal;font-weight:normal" x="906.939" y="839.329">
      <tspan x="906.939" y="839.329">Improve Event List and Detail Screens</tspan>
    </text>
  </g>
  <g>
    <rect style="fill: #bfbfbf" x="754.573" y="770.843" width="119.3" height="38"/>
    <rect style="fill: none; fill-opacity:0; stroke-width: 2; stroke: #000000" x="754.573" y="770.843" width="119.3" height="38"/>
    <text font-size="12.8" style="fill: #000000;text-anchor:middle;font-family:sans-serif;font-style:normal;font-weight:normal" x="814.223" y="793.743">
      <tspan x="814.223" y="793.743">Build Database</tspan>
    </text>
  </g>
  <g>
    <rect style="fill: #bfbfbf" x="1062.01" y="720.743" width="147.75" height="38"/>
    <rect style="fill: none; fill-opacity:0; stroke-width: 2; stroke: #000000" x="1062.01" y="720.743" width="147.75" height="38"/>
    <text font-size="12.8" style="fill: #000000;text-anchor:middle;font-family:sans-serif;font-style:normal;font-weight:normal" x="1135.88" y="743.643">
      <tspan x="1135.88" y="743.643">Improve the visuals</tspan>
    </text>
  </g>
  <g>
    <line style="fill: none; fill-opacity:0; stroke-width: 2; stroke: #000000" x1="851.15" y1="630.35" x2="819.86" y2="765.493"/>
    <polyline style="fill: none; fill-opacity:0; stroke-width: 2; stroke: #000000" points="816.74,756.802 819.356,767.672 826.483,759.057 "/>
  </g>
  <g>
    <line style="fill: none; fill-opacity:0; stroke-width: 2; stroke: #000000" x1="860.3" y1="630.249" x2="901.426" y2="811.177"/>
    <polyline style="fill: none; fill-opacity:0; stroke-width: 2; stroke: #000000" points="894.829,804.714 901.921,813.357 904.581,802.497 "/>
  </g>
  <g>
    <line style="fill: none; fill-opacity:0; stroke-width: 2; stroke: #000000" x1="879.615" y1="628.94" x2="1063.11" y2="771.995"/>
    <polyline style="fill: none; fill-opacity:0; stroke-width: 2; stroke: #000000" points="1053.92,771.164 1064.88,773.369 1060.06,763.278 "/>
  </g>
  <g>
    <line style="fill: none; fill-opacity:0; stroke-width: 2; stroke: #000000" x1="899.083" y1="630.36" x2="1088.52" y2="717.864"/>
    <polyline style="fill: none; fill-opacity:0; stroke-width: 2; stroke: #000000" points="1079.37,719.148 1090.55,718.802 1083.57,710.069 "/>
  </g>
  <g>
    <rect style="fill: #bfbfbf" x="-313.008" y="245.97" width="112.4" height="38"/>
    <rect style="fill: none; fill-opacity:0; stroke-width: 2; stroke: #000000" x="-313.008" y="245.97" width="112.4" height="38"/>
    <text font-size="12.8" style="fill: #000000;text-anchor:middle;font-family:sans-serif;font-style:normal;font-weight:normal" x="-256.808" y="268.87">
      <tspan x="-256.808" y="268.87">Create Project</tspan>
    </text>
  </g>
  <g>
    <line style="fill: none; fill-opacity:0; stroke-width: 2; stroke: #000000" x1="-93.6195" y1="170.833" x2="-218.307" y2="242.76"/>
    <polyline style="fill: none; fill-opacity:0; stroke-width: 2; stroke: #000000" points="-214.08,234.55 -220.244,243.877 -209.083,243.212 "/>
  </g>
  <g>
    <rect style="fill: #bfbfbf" x="-172.796" y="252.39" width="129.7" height="38"/>
    <rect style="fill: none; fill-opacity:0; stroke-width: 2; stroke: #000000" x="-172.796" y="252.39" width="129.7" height="38"/>
    <text font-size="12.8" style="fill: #000000;text-anchor:middle;font-family:sans-serif;font-style:normal;font-weight:normal" x="-107.946" y="275.29">
      <tspan x="-107.946" y="275.29">Create Database</tspan>
    </text>
  </g>
  <g>
    <rect style="fill: #bfbfbf" x="-24.3706" y="248.976" width="206.2" height="54"/>
    <rect style="fill: none; fill-opacity:0; stroke-width: 2; stroke: #000000" x="-24.3706" y="248.976" width="206.2" height="54"/>
    <text font-size="12.8" style="fill: #000000;text-anchor:middle;font-family:sans-serif;font-style:normal;font-weight:normal" x="78.7294" y="279.876">
      <tspan x="78.7294" y="279.876">Listen to some sensor input</tspan>
    </text>
  </g>
  <g>
    <line style="fill: none; fill-opacity:0; stroke-width: 2; stroke: #000000" x1="-67.0713" y1="170.75" x2="-98.1838" y2="247.354"/>
    <polyline style="fill: none; fill-opacity:0; stroke-width: 2; stroke: #000000" points="-99.8948,238.279 -99.0253,249.426 -90.6298,242.042 "/>
  </g>
  <g>
    <line style="fill: none; fill-opacity:0; stroke-width: 2; stroke: #000000" x1="-36.9855" y1="170.85" x2="44.6035" y2="244.973"/>
    <polyline style="fill: none; fill-opacity:0; stroke-width: 2; stroke: #000000" points="35.4947,243.453 46.2585,246.477 42.219,236.052 "/>
  </g>
  <g>
    <rect style="fill: #bfbfbf" x="699.44" y="343.326" width="78.85" height="38"/>
    <rect style="fill: none; fill-opacity:0; stroke-width: 2; stroke: #000000" x="699.44" y="343.326" width="78.85" height="38"/>
    <text font-size="12.8" style="fill: #000000;text-anchor:middle;font-family:sans-serif;font-style:normal;font-weight:normal" x="738.865" y="366.226">
      <tspan x="738.865" y="366.226">Widget</tspan>
    </text>
  </g>
  <g>
    <line style="fill: none; fill-opacity:0; stroke-width: 2; stroke: #000000" x1="373.992" y1="212.008" x2="694.309" y2="343.97"/>
    <polyline style="fill: none; fill-opacity:0; stroke-width: 2; stroke: #000000" points="685.225,345.635 696.376,344.822 689.035,336.389 "/>
  </g>
  <g>
    <rect style="fill: #bfbfbf" x="670.838" y="414.036" width="130.4" height="38"/>
    <rect style="fill: none; fill-opacity:0; stroke-width: 2; stroke: #000000" x="670.838" y="414.036" width="130.4" height="38"/>
    <text font-size="12.8" style="fill: #000000;text-anchor:middle;font-family:sans-serif;font-style:normal;font-weight:normal" x="736.038" y="436.936">
      <tspan x="736.038" y="436.936">Build Widget GUI</tspan>
    </text>
  </g>
  <g>
    <rect style="fill: #bfbfbf" x="821.85" y="415.45" width="198.9" height="38"/>
    <rect style="fill: none; fill-opacity:0; stroke-width: 2; stroke: #000000" x="821.85" y="415.45" width="198.9" height="38"/>
    <text font-size="12.8" style="fill: #000000;text-anchor:middle;font-family:sans-serif;font-style:normal;font-weight:normal" x="921.3" y="438.35">
      <tspan x="921.3" y="438.35">Update widget dynamically</tspan>
    </text>
  </g>
  <g>
    <line style="fill: none; fill-opacity:0; stroke-width: 2; stroke: #000000" x1="738.066" y1="382.325" x2="737.016" y2="408.568"/>
    <polyline style="fill: none; fill-opacity:0; stroke-width: 2; stroke: #000000" points="732.331,400.61 736.927,410.802 742.323,401.01 "/>
  </g>
  <g>
    <line style="fill: none; fill-opacity:0; stroke-width: 2; stroke: #000000" x1="779.218" y1="378.279" x2="866.9" y2="412.943"/>
    <polyline style="fill: none; fill-opacity:0; stroke-width: 2; stroke: #000000" points="857.842,414.739 868.98,413.766 861.518,405.439 "/>
  </g>
  <g>
    <rect style="fill: #bfbfbf" x="951.134" y="298.656" width="237.6" height="38"/>
    <rect style="fill: none; fill-opacity:0; stroke-width: 2; stroke: #000000" x="951.134" y="298.656" width="237.6" height="38"/>
    <text font-size="12.8" style="fill: #000000;text-anchor:middle;font-family:sans-serif;font-style:normal;font-weight:normal" x="1069.93" y="321.556">
      <tspan x="1069.93" y="321.556">Correct report based on feedback</tspan>
    </text>
  </g>
  <g>
    <line style="fill: none; fill-opacity:0; stroke-width: 2; stroke: #000000" x1="1112.17" y1="172.979" x2="1077.02" y2="293.384"/>
    <polyline style="fill: none; fill-opacity:0; stroke-width: 2; stroke: #000000" points="1074.4,284.53 1076.39,295.531 1083.99,287.332 "/>
  </g>
  <g>
    <rect style="fill: #bfbfbf" x="476.318" y="761.933" width="157.4" height="38"/>
    <rect style="fill: none; fill-opacity:0; stroke-width: 2; stroke: #000000" x="476.318" y="761.933" width="157.4" height="38"/>
    <text font-size="12.8" style="fill: #000000;text-anchor:middle;font-family:sans-serif;font-style:normal;font-weight:normal" x="555.018" y="784.833">
      <tspan x="555.018" y="784.833">Make settings screen</tspan>
    </text>
  </g>
  <g>
    <rect style="fill: #bfbfbf" x="597.794" y="815.673" width="163.35" height="38"/>
    <rect style="fill: none; fill-opacity:0; stroke-width: 2; stroke: #000000" x="597.794" y="815.673" width="163.35" height="38"/>
    <text font-size="12.8" style="fill: #000000;text-anchor:middle;font-family:sans-serif;font-style:normal;font-weight:normal" x="679.469" y="838.573">
      <tspan x="679.469" y="838.573">Make statistics screen</tspan>
    </text>
  </g>
  <g>
    <line style="fill: none; fill-opacity:0; stroke-width: 2; stroke: #000000" x1="820.515" y1="630.357" x2="594.172" y2="758.727"/>
    <polyline style="fill: none; fill-opacity:0; stroke-width: 2; stroke: #000000" points="598.459,750.548 592.227,759.83 603.392,759.246 "/>
  </g>
  <g>
    <line style="fill: none; fill-opacity:0; stroke-width: 2; stroke: #000000" x1="840.057" y1="630.36" x2="697.954" y2="811.154"/>
    <polyline style="fill: none; fill-opacity:0; stroke-width: 2; stroke: #000000" points="698.821,801.96 696.573,812.912 706.683,808.14 "/>
  </g>
  <g>
    <rect style="fill: #ffffff" x="1.39968" y="583.593" width="277.95" height="38"/>
    <rect style="fill: none; fill-opacity:0; stroke-width: 2; stroke: #000000" x="1.39968" y="583.593" width="277.95" height="38"/>
    <text font-size="12.7998" style="fill: #000000;text-anchor:middle;font-family:sans-serif;font-style:normal;font-weight:normal" x="140.375" y="606.493">
      <tspan x="140.375" y="606.493">Connect Application to content provider</tspan>
    </text>
  </g>
  <g>
    <rect style="fill: #ffffff" x="-286.85" y="59" width="129.7" height="38"/>
    <rect style="fill: none; fill-opacity:0; stroke-width: 2; stroke: #000000" x="-286.85" y="59" width="129.7" height="38"/>
    <text font-size="12.7998" style="fill: #000000;text-anchor:middle;font-family:sans-serif;font-style:normal;font-weight:normal" x="-222" y="81.9">
      <tspan x="-222" y="81.9">Content Provider</tspan>
    </text>
  </g>
  <g>
    <line style="fill: none; fill-opacity:0; stroke-width: 2; stroke: #000000" x1="381.996" y1="58.0567" x2="-151.676" y2="75.678"/>
    <polyline style="fill: none; fill-opacity:0; stroke-width: 2; stroke: #000000" points="-144.081,70.4245 -153.911,75.7518 -143.751,80.419 "/>
  </g>
  <g>
    <line style="fill: none; fill-opacity:0; stroke-width: 2; stroke: #000000" x1="-177.248" y1="98.0021" x2="-107.826" y2="129.031"/>
    <polyline style="fill: none; fill-opacity:0; stroke-width: 2; stroke: #000000" points="-116.955,130.428 -105.785,129.943 -112.874,121.298 "/>
  </g>
  <g>
    <line style="fill: none; fill-opacity:0; stroke-width: 2; stroke: #000000" x1="313.703" y1="211.951" x2="151.064" y2="578.502"/>
    <polyline style="fill: none; fill-opacity:0; stroke-width: 2; stroke: #000000" points="149.642,569.377 150.157,580.546 158.783,573.433 "/>
  </g>
  <g>
    <rect style="fill: #ffffff" x="1202.77" y="295" width="266.45" height="38"/>
    <rect style="fill: none; fill-opacity:0; stroke-width: 2; stroke: #000000" x="1202.77" y="295" width="266.45" height="38"/>
    <text font-size="12.7998" style="fill: #000000;text-anchor:middle;font-family:sans-serif;font-style:normal;font-weight:normal" x="1336" y="317.9">
      <tspan x="1336" y="317.9">Prepare Presentation for Focus Group</tspan>
    </text>
  </g>
  <g>
    <rect style="fill: #ffffff" x="1482.18" y="293.402" width="120.15" height="38"/>
    <rect style="fill: none; fill-opacity:0; stroke-width: 2; stroke: #000000" x="1482.18" y="293.402" width="120.15" height="38"/>
    <text font-size="12.7998" style="fill: #000000;text-anchor:middle;font-family:sans-serif;font-style:normal;font-weight:normal" x="1542.26" y="316.302">
      <tspan x="1542.26" y="316.302">Finish Mid-term</tspan>
    </text>
  </g>
  <g>
    <line style="fill: none; fill-opacity:0; stroke-width: 2; stroke: #000000" x1="1145.06" y1="172.987" x2="1305.34" y2="291.356"/>
    <polyline style="fill: none; fill-opacity:0; stroke-width: 2; stroke: #000000" points="1296.12,290.765 1307.14,292.684 1302.06,282.721 "/>
  </g>
  <g>
    <line style="fill: none; fill-opacity:0; stroke-width: 2; stroke: #000000" x1="1171.13" y1="172.964" x2="1484.93" y2="290.865"/>
    <polyline style="fill: none; fill-opacity:0; stroke-width: 2; stroke: #000000" points="1475.91,292.815 1487.03,291.651 1479.43,283.454 "/>
  </g>
  <g>
    <rect style="fill: #ffffff" x="314.444" y="588.973" width="199.3" height="38"/>
    <rect style="fill: none; fill-opacity:0; stroke-width: 2; stroke: #000000" x="314.444" y="588.973" width="199.3" height="38"/>
    <text font-size="12.7998" style="fill: #000000;text-anchor:middle;font-family:sans-serif;font-style:normal;font-weight:normal" x="414.094" y="611.873">
      <tspan x="414.094" y="611.873">Make a contacts subsection</tspan>
    </text>
  </g>
  <g>
    <rect style="fill: #ffffff" x="549.693" y="588.973" width="181.35" height="38"/>
    <rect style="fill: none; fill-opacity:0; stroke-width: 2; stroke: #000000" x="549.693" y="588.973" width="181.35" height="38"/>
    <text font-size="12.7998" style="fill: #000000;text-anchor:middle;font-family:sans-serif;font-style:normal;font-weight:normal" x="640.368" y="611.873">
      <tspan x="640.368" y="611.873">Get contacts from phone</tspan>
    </text>
  </g>
  <g>
    <rect style="fill: #ffffff" x="374.258" y="435.488" width="82.5" height="38"/>
    <rect style="fill: none; fill-opacity:0; stroke-width: 2; stroke: #000000" x="374.258" y="435.488" width="82.5" height="38"/>
    <text font-size="12.7998" style="fill: #000000;text-anchor:middle;font-family:sans-serif;font-style:normal;font-weight:normal" x="415.508" y="458.388">
      <tspan x="415.508" y="458.388">Contacts</tspan>
    </text>
  </g>
  <g>
    <line style="fill: none; fill-opacity:0; stroke-width: 2; stroke: #000000" x1="330.367" y1="211.987" x2="407.014" y2="430.295"/>
    <polyline style="fill: none; fill-opacity:0; stroke-width: 2; stroke: #000000" points="399.724,424.626 407.755,432.405 409.159,421.313 "/>
  </g>
  <g>
    <line style="fill: none; fill-opacity:0; stroke-width: 2; stroke: #000000" x1="415.324" y1="474.461" x2="414.319" y2="583.528"/>
    <polyline style="fill: none; fill-opacity:0; stroke-width: 2; stroke: #000000" points="409.391,575.719 414.298,585.764 419.39,575.811 "/>
  </g>
  <g>
    <line style="fill: none; fill-opacity:0; stroke-width: 2; stroke: #000000" x1="444.768" y1="474.461" x2="607.414" y2="585.479"/>
    <polyline style="fill: none; fill-opacity:0; stroke-width: 2; stroke: #000000" points="598.183,585.232 609.261,586.74 603.82,576.972 "/>
  </g>
  <g>
    <rect style="fill: #ffffff" x="-585.537" y="134.736" width="174.35" height="38"/>
    <rect style="fill: none; fill-opacity:0; stroke-width: 2; stroke: #000000" x="-585.537" y="134.736" width="174.35" height="38"/>
    <text font-size="12.7998" style="fill: #000000;text-anchor:middle;font-family:sans-serif;font-style:normal;font-weight:normal" x="-498.362" y="157.636">
      <tspan x="-498.362" y="157.636">Make CP location aware</tspan>
    </text>
  </g>
  <g>
    <rect style="fill: #ffffff" x="-386.937" y="138.736" width="187.15" height="38"/>
    <rect style="fill: none; fill-opacity:0; stroke-width: 2; stroke: #000000" x="-386.937" y="138.736" width="187.15" height="38"/>
    <text font-size="12.7998" style="fill: #000000;text-anchor:middle;font-family:sans-serif;font-style:normal;font-weight:normal" x="-293.362" y="161.636">
      <tspan x="-293.362" y="161.636">Connect CP to pedometer</tspan>
    </text>
  </g>
  <g>
    <line style="fill: none; fill-opacity:0; stroke-width: 2; stroke: #000000" x1="-239.875" y1="97.973" x2="-272.504" y2="134.431"/>
    <polyline style="fill: none; fill-opacity:0; stroke-width: 2; stroke: #000000" points="-271.052,125.311 -273.996,136.097 -263.601,131.98 "/>
  </g>
  <g>
    <line style="fill: none; fill-opacity:0; stroke-width: 2; stroke: #000000" x1="-287.312" y1="95.8986" x2="-421.113" y2="132.566"/>
    <polyline style="fill: none; fill-opacity:0; stroke-width: 2; stroke: #000000" points="-414.946,125.692 -423.269,133.157 -412.303,135.336 "/>
  </g>
</svg>
